<?xml version="1.0" encoding="UTF-8"?>
<svg
  xmlns="http://www.w3.org/2000/svg"
  xmlns:xlink="http://www.w3.org/1999/xlink"
  width="12px"
  height="12px"
  viewBox="0 0 12 12"
  version="1.1"
  fill="currentColor">
  <g id="surface1">
    <path
      d="M 6.324219 11.890625 C 5.984375 11.890625 5.648438 11.863281 5.3125 11.808594 C 1.921875 11.25 -0.378906 8.050781 0.171875 4.65625 C 0.472656 2.773438 1.621094 1.136719 3.289062 0.214844 C 3.570312 0.0585938 3.921875 0.078125 4.183594 0.269531 C 4.453125 0.453125 4.585938 0.777344 4.527344 1.097656 L 4.078125 1.0625 L 4.5 1.136719 C 4.011719 3.746094 5.496094 6.324219 8.003906 7.199219 C 8.9375 7.523438 9.9375 7.585938 10.90625 7.382812 C 11.21875 7.320312 11.539062 7.441406 11.730469 7.691406 C 11.925781 7.945312 11.957031 8.285156 11.816406 8.570312 C 10.738281 10.609375 8.625 11.886719 6.324219 11.890625 Z M 3.65625 0.988281 C 2.332031 1.742188 1.386719 3.023438 1.0625 4.511719 C 0.734375 6 1.054688 7.558594 1.945312 8.796875 C 3.019531 10.304688 4.796875 11.148438 6.648438 11.03125 C 8.492188 10.917969 10.152344 9.855469 11.03125 8.230469 C 9.929688 8.449219 8.789062 8.375 7.726562 8.011719 C 4.824219 6.992188 3.097656 4.011719 3.65625 0.988281 Z M 3.65625 0.988281 " />
  </g>
</svg>
