<?xml version="1.0" encoding="UTF-8"?>
<svg
  xmlns="http://www.w3.org/2000/svg"
  xmlns:xlink="http://www.w3.org/1999/xlink"
  width="12px"
  height="12px"
  viewBox="0 0 12 12"
  version="1.1"
  fill="currentColor">
  <g id="surface1">
    <path
      style="stroke: none; fill-rule: nonzero; fill: rgb(0%, 0%, 0%); fill-opacity: 1"
      d="M 6 2.472656 C 4.03125 2.472656 2.433594 4.074219 2.433594 6.039062 C 2.433594 8.007812 4.03125 9.609375 6 9.609375 C 7.96875 9.609375 9.566406 8.007812 9.566406 6.039062 C 9.566406 4.070312 7.96875 2.472656 6 2.472656 Z M 6 8.648438 C 4.558594 8.648438 3.390625 7.476562 3.390625 6.039062 C 3.390625 4.597656 4.558594 3.425781 6 3.425781 C 7.4375 3.425781 8.609375 4.597656 8.609375 6.039062 C 8.609375 7.476562 7.4375 8.648438 6 8.648438 Z M 6 8.648438 " />
    <path
      style="stroke: none; fill-rule: nonzero; fill: rgb(0%, 0%, 0%); fill-opacity: 1"
      d="M 6 1.753906 C 6.265625 1.753906 6.476562 1.539062 6.476562 1.273438 L 6.476562 0.734375 C 6.476562 0.46875 6.265625 0.257812 6 0.257812 C 5.734375 0.257812 5.523438 0.46875 5.523438 0.734375 L 5.523438 1.273438 C 5.523438 1.539062 5.734375 1.753906 6 1.753906 Z M 6 1.753906 " />
    <path
      style="stroke: none; fill-rule: nonzero; fill: rgb(0%, 0%, 0%); fill-opacity: 1"
      d="M 6 10.246094 C 5.734375 10.246094 5.523438 10.460938 5.523438 10.726562 L 5.523438 11.261719 C 5.523438 11.527344 5.734375 11.738281 6 11.738281 C 6.265625 11.738281 6.476562 11.527344 6.476562 11.261719 L 6.476562 10.726562 C 6.476562 10.460938 6.265625 10.246094 6 10.246094 Z M 6 10.246094 " />
    <path
      style="stroke: none; fill-rule: nonzero; fill: rgb(0%, 0%, 0%); fill-opacity: 1"
      d="M 11.265625 5.523438 L 10.726562 5.523438 C 10.460938 5.523438 10.246094 5.734375 10.246094 6 C 10.246094 6.265625 10.460938 6.476562 10.726562 6.476562 L 11.265625 6.476562 C 11.53125 6.476562 11.742188 6.265625 11.742188 6 C 11.742188 5.734375 11.53125 5.523438 11.265625 5.523438 Z M 11.265625 5.523438 " />
    <path
      style="stroke: none; fill-rule: nonzero; fill: rgb(0%, 0%, 0%); fill-opacity: 1"
      d="M 1.273438 5.523438 L 0.734375 5.523438 C 0.46875 5.523438 0.257812 5.734375 0.257812 6 C 0.257812 6.265625 0.46875 6.476562 0.734375 6.476562 L 1.273438 6.476562 C 1.539062 6.476562 1.75 6.265625 1.75 6 C 1.753906 5.734375 1.539062 5.523438 1.273438 5.523438 Z M 1.273438 5.523438 " />
    <path
      style="stroke: none; fill-rule: nonzero; fill: rgb(0%, 0%, 0%); fill-opacity: 1"
      d="M 9.382812 1.941406 L 9 2.320312 C 8.8125 2.507812 8.8125 2.8125 9 3 C 9.1875 3.1875 9.492188 3.1875 9.679688 3 L 10.058594 2.617188 C 10.246094 2.429688 10.246094 2.128906 10.058594 1.941406 C 9.871094 1.753906 9.570312 1.753906 9.382812 1.941406 Z M 9.382812 1.941406 " />
    <path
      style="stroke: none; fill-rule: nonzero; fill: rgb(0%, 0%, 0%); fill-opacity: 1"
      d="M 2.320312 9 L 1.941406 9.382812 C 1.753906 9.570312 1.753906 9.871094 1.941406 10.058594 C 2.128906 10.246094 2.429688 10.246094 2.617188 10.058594 L 3 9.679688 C 3.1875 9.492188 3.1875 9.1875 3 9 C 2.8125 8.8125 2.507812 8.816406 2.320312 9 Z M 2.320312 9 " />
    <path
      style="stroke: none; fill-rule: nonzero; fill: rgb(0%, 0%, 0%); fill-opacity: 1"
      d="M 9.679688 9 C 9.492188 8.8125 9.1875 8.8125 9 9 C 8.8125 9.1875 8.8125 9.492188 9 9.679688 L 9.382812 10.058594 C 9.570312 10.246094 9.871094 10.246094 10.058594 10.058594 C 10.246094 9.871094 10.246094 9.570312 10.058594 9.382812 Z M 9.679688 9 " />
    <path
      style="stroke: none; fill-rule: nonzero; fill: rgb(0%, 0%, 0%); fill-opacity: 1"
      d="M 2.320312 3 C 2.507812 3.1875 2.8125 3.1875 3 3 C 3.1875 2.8125 3.1875 2.507812 3 2.320312 L 2.617188 1.941406 C 2.429688 1.753906 2.128906 1.753906 1.941406 1.941406 C 1.753906 2.128906 1.753906 2.429688 1.941406 2.617188 Z M 2.320312 3 " />
  </g>
</svg>
